<svg fill="none" height="30" viewBox="0 0 30 30" width="30" xmlns="http://www.w3.org/2000/svg"><path d="m30 27.6269-8.8567-8.8567c1.4701-1.9619 2.3523-4.3881 2.3523-7.0224 0-6.47807-5.2697-11.7478-11.7478-11.7478-6.47807 0-11.7478 5.26973-11.7478 11.7478 0 6.4781 5.26973 11.7478 11.7478 11.7478 2.6343 0 5.0605-.8822 7.0224-2.3523l8.8567 8.8567zm-28.88116-15.8791c0-5.86103 4.76793-10.62896 10.62896-10.62896 5.8611 0 10.629 4.76793 10.629 10.62896 0 5.8611-4.7679 10.629-10.629 10.629-5.86103 0-10.62896-4.7679-10.62896-10.629zm18.77806 8.4433c.0996-.0962.1975-.1941.2937-.2937.0817-.0844.17-.1622.2489-.2489l7.9785 7.9784-.7916.7916-7.9779-7.979c.0867-.0789.1639-.1673.2484-.2484z" fill="#a0a4a8"/></svg>